Coordinates
version=1
nRows=65
nColumns=12
inDegrees=yes

Units are S.I. units (second, meters, Newtons, ...)
Angles are in degrees

endheader
time	SC_y	SC_z	SC_x	AC_y	AC_z	AC_x	GH_y	GH_z	GH_yy	EL_x	PS_y
       0.0               -21.4          39.47          60.14          38.26         -8.357         -13.35           56.8          20.58          161.0          77.11          158.4
   0.01093               -21.4          39.47          60.13          38.26         -8.356         -13.35          56.76          20.59          161.0          77.11          158.4
   0.02186               -21.4          39.47          60.12          38.26         -8.354         -13.35          56.73          20.59          161.0           77.1          158.3
   0.03279               -21.4          39.46          60.11          38.26         -8.352         -13.34          56.69          20.59          161.0           77.1          158.3
   0.04372              -21.41          39.46           60.1          38.26          -8.35         -13.34          56.65          20.59          160.9          77.09          158.3
   0.05465              -21.41          39.46          60.09          38.26         -8.348         -13.33          56.61          20.59          160.9          77.08          158.3
   0.06558              -21.41          39.45          60.08          38.26         -8.346         -13.33          56.57          20.59          160.9          77.08          158.3
   0.07651              -21.42          39.45          60.07          38.25         -8.343         -13.32          56.52           20.6          160.8          77.07          158.3
   0.08744              -21.42          39.45          60.06          38.25         -8.341         -13.32          56.47           20.6          160.8          77.06          158.3
   0.09836              -21.42          39.44          60.05          38.25         -8.338         -13.31          56.42           20.6          160.8          77.06          158.2
    0.1093              -21.43          39.44          60.03          38.25         -8.335         -13.31          56.36           20.6          160.7          77.05          158.2
    0.1202              -21.43          39.44          60.02          38.25         -8.332          -13.3          56.29          20.61          160.7          77.04          158.2
    0.1312              -21.43          39.43           60.0          38.24         -8.328         -13.29          56.23          20.61          160.6          77.03          158.2
    0.1421              -21.44          39.43          59.98          38.24         -8.325         -13.29          56.15          20.61          160.6          77.02          158.1
     0.153              -21.44          39.42          59.96          38.24         -8.321         -13.28          56.07          20.62          160.5           77.0          158.1
    0.1639              -21.45          39.41          59.94          38.24         -8.316         -13.27          55.99          20.62          160.5          76.99          158.1
    0.1749              -21.45          39.41          59.92          38.23         -8.311         -13.26          55.89          20.62          160.4          76.98          158.1
    0.1858              -21.46           39.4           59.9          38.23         -8.306         -13.25          55.79          20.63          160.4          76.96          158.0
    0.1967              -21.47          39.39          59.87          38.23         -8.301         -13.24          55.68          20.63          160.3          76.94          158.0
    0.2077              -21.48          39.39          59.84          38.22         -8.294         -13.22          55.56          20.64          160.2          76.93          157.9
    0.2186              -21.48          39.38          59.81          38.22         -8.288         -13.21          55.42          20.64          160.1          76.91          157.9
    0.2295              -21.49          39.37          59.77          38.21          -8.28         -13.19          55.28          20.65          160.0          76.88          157.8
    0.2404               -21.5          39.36          59.73          38.21         -8.272         -13.18          55.11          20.66          159.9          76.86          157.8
    0.2514              -21.51          39.34          59.69           38.2         -8.263         -13.16          54.93          20.66          159.8          76.83          157.7
    0.2623              -21.53          39.33          59.64          38.19         -8.252         -13.14          54.73          20.67          159.7           76.8          157.7
    0.2732              -21.54          39.31          59.59          38.19         -8.241         -13.11          54.51          20.68          159.5          76.77          157.6
    0.2842              -21.56           39.3          59.53          38.18         -8.228         -13.09          54.26          20.69          159.4          76.73          157.5
    0.2951              -21.57          39.28          59.46          38.17         -8.214         -13.06          53.97           20.7          159.2          76.69          157.4
     0.306              -21.59          39.26          59.38          38.16         -8.198         -13.03          53.66          20.72          159.0          76.64          157.3
     0.317              -21.62          39.23           59.3          38.15         -8.179         -12.99          53.29          20.73          158.7          76.58          157.2
    0.3279              -21.64           39.2           59.2          38.13         -8.158         -12.95          52.88          20.75          158.4          76.52          157.0
    0.3388              -21.67          39.17          59.09          38.12         -8.134          -12.9          52.41          20.77          158.1          76.45          156.9
    0.3497              -21.71          39.14          58.95           38.1         -8.106         -12.84          51.86          20.79          157.8          76.37          156.7
    0.3607              -21.75          39.09           58.8          38.08         -8.074         -12.77          51.22          20.82          157.4          76.27          156.5
    0.3716              -21.79          39.04          58.62          38.05         -8.036          -12.7          50.48          20.85          156.9          76.16          156.2
    0.3825              -21.85          38.98          58.41          38.02         -7.992          -12.6           49.6          20.88          156.3          76.03          155.9
    0.3935              -21.91          38.91          58.16          37.99         -7.939          -12.5          48.56          20.93          155.6          75.87          155.6
    0.4044              -21.99          38.83          57.86          37.95         -7.875         -12.37          47.31          20.98          154.8          75.68          155.1
    0.4153              -22.08          38.72           57.5           37.9         -7.798         -12.21          45.79          21.04          153.8          75.45          154.6
    0.4262               -22.2           38.6          57.06          37.83         -7.704         -12.02          43.95          21.12          152.6          75.18          154.0
    0.4372              -22.34          38.45          56.51          37.76         -7.589         -11.78          41.67          21.21          151.1          74.83          153.2
    0.4481              -22.52          38.25          55.83          37.66         -7.444         -11.48          38.82          21.33          149.2           74.4          152.3
     0.459              -22.74          38.01          54.97          37.54         -7.262         -11.11          35.24          21.48          146.9          73.86          151.1
      0.47              -23.02           37.7          53.88          37.39         -7.031         -10.63          30.69          21.67          143.9          73.18          149.5
    0.4809              -23.39          37.31          52.49           37.2         -6.735         -10.03          24.86          21.91          140.0           72.3          147.5
    0.4918              -23.85           36.8           50.7          36.95         -6.355         -9.249          17.38          22.23          135.1          71.17          145.0
    0.5028              -24.45          36.15          48.41          36.63         -5.869         -8.255          7.826          22.62          128.9          69.73          141.8
    0.5137               -25.2          35.34          45.53          36.23         -5.259         -7.004         -4.187          23.12          121.0          67.92          137.7
    0.5246              -26.11          34.35          42.02          35.74         -4.515          -5.48         -18.83          23.73          111.3          65.71          132.7
    0.5355              -27.16           33.2          37.96          35.17         -3.653         -3.714          -35.8          24.44          100.2          63.16          127.0
    0.5465              -28.31          31.96          33.56          34.56         -2.719         -1.801         -54.17           25.2          88.13          60.39          120.7
    0.5574              -29.45          30.71          29.16          33.95         -1.785         0.1122         -72.54          25.97          76.06          57.62          114.5
    0.5683              -30.51          29.56           25.1          33.38        -0.9232          1.879         -89.51          26.68          64.91          55.06          108.8
    0.5793              -31.42          28.57          21.59          32.89        -0.1793          3.403         -104.2          27.29           55.3          52.85          103.8
    0.5902              -32.17          27.76          18.71          32.49         0.4311          4.653         -116.2          27.79          47.41          51.04          99.72
    0.6011              -32.77          27.11          16.42          32.17         0.9166          5.648         -125.7          28.18          41.13           49.6          96.48
     0.612              -33.23          26.61          14.63          31.92          1.297          6.427         -133.2          28.49          36.22          48.48          93.94
     0.623              -33.59          26.21          13.24          31.73          1.593          7.034         -139.0          28.74          32.39           47.6          91.97
    0.6339              -33.88           25.9          12.15          31.57          1.824          7.508         -143.6          28.93           29.4          46.91          90.42
    0.6448               -34.1          25.66          11.29          31.46          2.006          7.881         -147.2          29.08          27.04          46.37          89.21
    0.6558              -34.28          25.47          10.61          31.36          2.151          8.177         -150.0          29.19          25.18          45.94          88.25
    0.6667              -34.42          25.31          10.06          31.28          2.266          8.414         -152.3          29.29          23.68           45.6          87.47
    0.6776              -34.53          25.19          9.618          31.22           2.36          8.606         -154.1          29.37          22.46          45.32          86.85
    0.6886              -34.63          25.09          9.256          31.17          2.437          8.764         -155.6          29.43          21.47          45.09          86.33
    0.6995              -34.71           25.0          8.956          31.13          2.501          8.894         -156.9          29.48          20.65           44.9          85.91
